<svg width="17" height="16" viewBox="0 0 17 16" fill="none" xmlns="http://www.w3.org/2000/svg">
<path d="M1.50787 8.61543H12.6779L7.79787 13.4954C7.40787 13.8854 7.40787 14.5254 7.79787 14.9154C8.18787 15.3054 8.81787 15.3054 9.20787 14.9154L15.7979 8.32543C16.1879 7.93543 16.1879 7.30543 15.7979 6.91543L9.21787 0.315435C9.03104 0.128182 8.77739 0.0229492 8.51287 0.0229492C8.24836 0.0229492 7.99471 0.128182 7.80787 0.315435C7.41787 0.705435 7.41787 1.33543 7.80787 1.72543L12.6779 6.61543H1.50787C0.957874 6.61543 0.507874 7.06543 0.507874 7.61543C0.507874 8.16543 0.957874 8.61543 1.50787 8.61543Z" fill="#37474F"/>
</svg>
