<svg width="25" height="29" viewBox="0 0 25 29" fill="none" xmlns="http://www.w3.org/2000/svg">
<path fill-rule="evenodd" clip-rule="evenodd" d="M15.0962 1.3868L24.0625 10.3531V28.7421H15.0694V21.0338C15.0694 19.6147 13.9191 18.4644 12.5 18.4644C11.0809 18.4644 9.93056 19.6147 9.93056 21.0338V28.7421H0.9375V10.0949L9.64557 1.3868C11.1507 -0.118354 13.591 -0.118352 15.0962 1.3868ZM3.50694 11.1591L11.4625 3.20364C11.9641 2.70193 12.7776 2.70193 13.2793 3.20364L21.4931 11.4174V26.1727H17.6389V21.0338C17.6389 18.1957 15.3381 15.8949 12.5 15.8949C9.66187 15.8949 7.36111 18.1957 7.36111 21.0338V26.1727H3.50694V11.1591Z" fill="#2D2D2D"/>
</svg>
